<?xml version="1.0" encoding="UTF-8" standalone="no"?>
<!DOCTYPE svg PUBLIC "-//W3C//DTD SVG 1.1//EN"
 "http://www.w3.org/Graphics/SVG/1.1/DTD/svg11.dtd">
<!-- Generated by graphviz version 2.47.0 (20210316.0004)
 -->
<!-- Pages: 1 -->
<svg width="193pt" height="475pt"
 viewBox="0.00 0.00 192.70 474.70" xmlns="http://www.w3.org/2000/svg" xmlns:xlink="http://www.w3.org/1999/xlink">
<g id="graph0" class="graph" transform="scale(1 1) rotate(0) translate(4 470.7)">
<polygon fill="white" stroke="transparent" points="-4,4 -4,-470.7 188.7,-470.7 188.7,4 -4,4"/>
<!-- fake -->
<g id="node1" class="node">
<title>fake</title>
</g>
<!-- s0 -->
<g id="node2" class="node">
<title>s0</title>
<ellipse fill="none" stroke="black" cx="35.85" cy="-375.7" rx="27" ry="18"/>
<text text-anchor="middle" x="35.85" y="-372" font-family="Times New Roman,serif" font-size="14.00">s0</text>
</g>
<!-- fake&#45;&gt;s0 -->
<g id="edge1" class="edge">
<title>fake&#45;&gt;s0</title>
<path fill="none" stroke="black" stroke-width="2" d="M35.85,-430.51C35.85,-422.49 35.85,-412.74 35.85,-403.77"/>
<polygon fill="black" stroke="black" stroke-width="2" points="39.35,-403.73 35.85,-393.73 32.35,-403.73 39.35,-403.73"/>
</g>
<!-- s1 -->
<g id="node3" class="node">
<title>s1</title>
<ellipse fill="none" stroke="black" cx="35.85" cy="-288.7" rx="27" ry="18"/>
<text text-anchor="middle" x="35.85" y="-285" font-family="Times New Roman,serif" font-size="14.00">s1</text>
</g>
<!-- s0&#45;&gt;s1 -->
<g id="edge2" class="edge">
<title>s0&#45;&gt;s1</title>
<path fill="none" stroke="black" d="M35.85,-357.5C35.85,-345.86 35.85,-330.24 35.85,-316.93"/>
<polygon fill="black" stroke="black" points="39.35,-316.87 35.85,-306.87 32.35,-316.87 39.35,-316.87"/>
<text text-anchor="middle" x="37.85" y="-328.5" font-family="Times New Roman,serif" font-size="14.00">l</text>
</g>
<!-- s2 -->
<g id="node4" class="node">
<title>s2</title>
<ellipse fill="none" stroke="black" cx="64.85" cy="-201.7" rx="27" ry="18"/>
<text text-anchor="middle" x="64.85" y="-198" font-family="Times New Roman,serif" font-size="14.00">s2</text>
</g>
<!-- s1&#45;&gt;s2 -->
<g id="edge3" class="edge">
<title>s1&#45;&gt;s2</title>
<path fill="none" stroke="black" d="M41.58,-270.9C45.63,-259.03 51.14,-242.87 55.79,-229.25"/>
<polygon fill="black" stroke="black" points="59.21,-230.05 59.13,-219.46 52.59,-227.79 59.21,-230.05"/>
<text text-anchor="middle" x="54.85" y="-241.5" font-family="Times New Roman,serif" font-size="14.00">l</text>
</g>
<!-- s5 -->
<g id="node5" class="node">
<title>s5</title>
<ellipse fill="none" stroke="black" cx="22.85" cy="-22.85" rx="18.72" ry="18.72"/>
<ellipse fill="none" stroke="black" cx="22.85" cy="-22.85" rx="22.7" ry="22.7"/>
<text text-anchor="middle" x="22.85" y="-19.15" font-family="Times New Roman,serif" font-size="14.00">s5</text>
</g>
<!-- s1&#45;&gt;s5 -->
<g id="edge6" class="edge">
<title>s1&#45;&gt;s5</title>
<path fill="none" stroke="black" d="M24.96,-271.98C21.46,-266.17 17.95,-259.37 15.85,-252.7 11.43,-238.65 13.52,-234.41 12.85,-219.7 10.23,-161.87 15.5,-94.47 19.33,-55.72"/>
<polygon fill="black" stroke="black" points="22.84,-55.88 20.37,-45.58 15.87,-55.17 22.84,-55.88"/>
<text text-anchor="middle" x="15.35" y="-154.5" font-family="Times New Roman,serif" font-size="14.00">f</text>
</g>
<!-- s4 -->
<g id="node6" class="node">
<title>s4</title>
<ellipse fill="none" stroke="black" cx="161.85" cy="-22.85" rx="18.72" ry="18.72"/>
<ellipse fill="none" stroke="black" cx="161.85" cy="-22.85" rx="22.7" ry="22.7"/>
<text text-anchor="middle" x="161.85" y="-19.15" font-family="Times New Roman,serif" font-size="14.00">s4</text>
</g>
<!-- s1&#45;&gt;s4 -->
<g id="edge5" class="edge">
<title>s1&#45;&gt;s4</title>
<path fill="none" stroke="black" d="M55.86,-276.22C75.22,-264.25 104.29,-243.87 122.85,-219.7 163.07,-167.3 163.81,-144.48 169.85,-78.7 170.55,-71.05 170.04,-62.85 169,-55.18"/>
<polygon fill="black" stroke="black" points="172.42,-54.43 167.32,-45.14 165.52,-55.58 172.42,-54.43"/>
<text text-anchor="middle" x="163.35" y="-154.5" font-family="Times New Roman,serif" font-size="14.00">c</text>
</g>
<!-- s3 -->
<g id="node7" class="node">
<title>s3</title>
<ellipse fill="none" stroke="black" cx="72.85" cy="-114.7" rx="27" ry="18"/>
<text text-anchor="middle" x="72.85" y="-111" font-family="Times New Roman,serif" font-size="14.00">s3</text>
</g>
<!-- s1&#45;&gt;s3 -->
<g id="edge4" class="edge">
<title>s1&#45;&gt;s3</title>
<path fill="none" stroke="black" d="M28.81,-271.05C21.02,-250.15 10.79,-213.42 20.85,-183.7 26.79,-166.14 39.28,-149.56 50.53,-137.16"/>
<polygon fill="black" stroke="black" points="53.31,-139.31 57.66,-129.65 48.24,-134.49 53.31,-139.31"/>
<text text-anchor="middle" x="24.85" y="-198" font-family="Times New Roman,serif" font-size="14.00">d</text>
</g>
<!-- s2&#45;&gt;s2 -->
<g id="edge7" class="edge">
<title>s2&#45;&gt;s2</title>
<path fill="none" stroke="black" d="M89.38,-209.45C100.36,-210.19 109.85,-207.6 109.85,-201.7 109.85,-197.73 105.56,-195.26 99.42,-194.29"/>
<polygon fill="black" stroke="black" points="99.5,-190.79 89.38,-193.94 99.25,-197.79 99.5,-190.79"/>
<text text-anchor="middle" x="111.85" y="-198" font-family="Times New Roman,serif" font-size="14.00">l</text>
</g>
<!-- s2&#45;&gt;s5 -->
<g id="edge10" class="edge">
<title>s2&#45;&gt;s5</title>
<path fill="none" stroke="black" d="M55.08,-184.87C47.34,-171.5 37.01,-151.56 31.85,-132.7 24.97,-107.55 22.88,-78.01 22.42,-56.06"/>
<polygon fill="black" stroke="black" points="25.92,-55.91 22.32,-45.94 18.92,-55.98 25.92,-55.91"/>
<text text-anchor="middle" x="34.35" y="-111" font-family="Times New Roman,serif" font-size="14.00">f</text>
</g>
<!-- s2&#45;&gt;s4 -->
<g id="edge9" class="edge">
<title>s2&#45;&gt;s4</title>
<path fill="none" stroke="black" d="M82.83,-187.93C98.86,-175.59 121.76,-155.47 134.85,-132.7 148.41,-109.09 155.22,-78.79 158.6,-56.16"/>
<polygon fill="black" stroke="black" points="162.09,-56.41 159.96,-46.04 155.15,-55.48 162.09,-56.41"/>
<text text-anchor="middle" x="152.35" y="-111" font-family="Times New Roman,serif" font-size="14.00">c</text>
</g>
<!-- s2&#45;&gt;s3 -->
<g id="edge8" class="edge">
<title>s2&#45;&gt;s3</title>
<path fill="none" stroke="black" d="M64.99,-183.53C65.2,-173.87 65.7,-161.58 66.85,-150.7 67.12,-148.12 67.46,-145.45 67.85,-142.78"/>
<polygon fill="black" stroke="black" points="71.33,-143.16 69.47,-132.72 64.42,-142.04 71.33,-143.16"/>
<text text-anchor="middle" x="70.85" y="-154.5" font-family="Times New Roman,serif" font-size="14.00">d</text>
</g>
<!-- s5&#45;&gt;s5 -->
<g id="edge15" class="edge">
<title>s5&#45;&gt;s5</title>
<path fill="none" stroke="black" d="M44.28,-31.63C54.59,-32.71 63.7,-29.79 63.7,-22.85 63.7,-18.4 59.96,-15.61 54.57,-14.45"/>
<polygon fill="black" stroke="black" points="54.41,-10.95 44.28,-14.07 54.15,-17.94 54.41,-10.95"/>
<text text-anchor="middle" x="66.2" y="-19.15" font-family="Times New Roman,serif" font-size="14.00">f</text>
</g>
<!-- s3&#45;&gt;s2 -->
<g id="edge11" class="edge">
<title>s3&#45;&gt;s2</title>
<path fill="none" stroke="black" d="M74.42,-132.89C75,-142.56 75.22,-154.84 73.85,-165.7 73.51,-168.4 73.02,-171.2 72.45,-173.98"/>
<polygon fill="black" stroke="black" points="69.03,-173.23 70.11,-183.77 75.84,-174.86 69.03,-173.23"/>
<text text-anchor="middle" x="75.85" y="-154.5" font-family="Times New Roman,serif" font-size="14.00">l</text>
</g>
<!-- s3&#45;&gt;s5 -->
<g id="edge14" class="edge">
<title>s3&#45;&gt;s5</title>
<path fill="none" stroke="black" d="M63.91,-97.63C56.88,-85.01 46.93,-67.11 38.57,-52.11"/>
<polygon fill="black" stroke="black" points="41.54,-50.25 33.62,-43.21 35.43,-53.65 41.54,-50.25"/>
<text text-anchor="middle" x="55.35" y="-67.5" font-family="Times New Roman,serif" font-size="14.00">f</text>
</g>
<!-- s3&#45;&gt;s4 -->
<g id="edge13" class="edge">
<title>s3&#45;&gt;s4</title>
<path fill="none" stroke="black" d="M87.15,-99.26C101.12,-85.15 122.63,-63.44 138.98,-46.94"/>
<polygon fill="black" stroke="black" points="141.53,-49.33 146.08,-39.76 136.56,-44.4 141.53,-49.33"/>
<text text-anchor="middle" x="123.35" y="-67.5" font-family="Times New Roman,serif" font-size="14.00">c</text>
</g>
<!-- s3&#45;&gt;s3 -->
<g id="edge12" class="edge">
<title>s3&#45;&gt;s3</title>
<path fill="none" stroke="black" d="M97.38,-122.45C108.36,-123.19 117.85,-120.6 117.85,-114.7 117.85,-110.73 113.56,-108.26 107.42,-107.29"/>
<polygon fill="black" stroke="black" points="107.5,-103.79 97.38,-106.94 107.25,-110.79 107.5,-103.79"/>
<text text-anchor="middle" x="121.85" y="-111" font-family="Times New Roman,serif" font-size="14.00">d</text>
</g>
</g>
</svg>
