<?xml version="1.0" encoding="UTF-8" standalone="no"?>
<!DOCTYPE svg PUBLIC "-//W3C//DTD SVG 1.1//EN"
 "http://www.w3.org/Graphics/SVG/1.1/DTD/svg11.dtd">
<!-- Generated by graphviz version 2.43.0 (0)
 -->
<!-- Title: %3 Pages: 1 -->
<svg width="201pt" height="480pt"
 viewBox="0.00 0.00 200.90 479.90" xmlns="http://www.w3.org/2000/svg" xmlns:xlink="http://www.w3.org/1999/xlink">
<g id="graph0" class="graph" transform="scale(1 1) rotate(0) translate(4 475.9)">
<title>%3</title>
<polygon fill="white" stroke="transparent" points="-4,4 -4,-475.9 196.9,-475.9 196.9,4 -4,4"/>
<!-- fake -->
<g id="node1" class="node">
<title>fake</title>
</g>
<!-- s0 -->
<g id="node4" class="node">
<title>s0</title>
<ellipse fill="none" stroke="black" cx="153.45" cy="-380.9" rx="27" ry="18"/>
<text text-anchor="middle" x="153.45" y="-377.2" font-family="Times,serif" font-size="14.00">s0</text>
</g>
<!-- fake&#45;&gt;s0 -->
<g id="edge1" class="edge">
<title>fake&#45;&gt;s0</title>
<path fill="none" stroke="black" stroke-width="2" d="M153.45,-435.71C153.45,-427.69 153.45,-417.94 153.45,-408.97"/>
<polygon fill="black" stroke="black" stroke-width="2" points="156.95,-408.93 153.45,-398.93 149.95,-408.93 156.95,-408.93"/>
</g>
<!-- s5 -->
<g id="node2" class="node">
<title>s5</title>
<ellipse fill="none" stroke="black" cx="25.45" cy="-25.45" rx="21.4" ry="21.4"/>
<ellipse fill="none" stroke="black" cx="25.45" cy="-25.45" rx="25.4" ry="25.4"/>
<text text-anchor="middle" x="25.45" y="-21.75" font-family="Times,serif" font-size="14.00">s5</text>
</g>
<!-- s5&#45;&gt;s5 -->
<g id="edge15" class="edge">
<title>s5&#45;&gt;s5</title>
<path fill="none" stroke="black" d="M49.58,-34.71C59.98,-35.47 68.9,-32.38 68.9,-25.45 68.9,-21.01 65.24,-18.14 59.87,-16.86"/>
<polygon fill="black" stroke="black" points="59.78,-13.34 49.58,-16.19 59.33,-20.33 59.78,-13.34"/>
<text text-anchor="middle" x="71.9" y="-21.75" font-family="Times,serif" font-size="14.00">f</text>
</g>
<!-- s2 -->
<g id="node3" class="node">
<title>s2</title>
<ellipse fill="none" stroke="black" cx="89.45" cy="-206.9" rx="27" ry="18"/>
<text text-anchor="middle" x="89.45" y="-203.2" font-family="Times,serif" font-size="14.00">s2</text>
</g>
<!-- s2&#45;&gt;s5 -->
<g id="edge10" class="edge">
<title>s2&#45;&gt;s5</title>
<path fill="none" stroke="black" d="M73.83,-191.96C60.8,-179.28 43.02,-159.33 34.45,-137.9 24.68,-113.47 22.73,-83.67 23.06,-61.03"/>
<polygon fill="black" stroke="black" points="26.57,-60.96 23.37,-50.86 19.57,-60.75 26.57,-60.96"/>
<text text-anchor="middle" x="37.45" y="-116.2" font-family="Times,serif" font-size="14.00">f</text>
</g>
<!-- s2&#45;&gt;s2 -->
<g id="edge7" class="edge">
<title>s2&#45;&gt;s2</title>
<path fill="none" stroke="black" d="M113.98,-214.65C124.96,-215.39 134.45,-212.8 134.45,-206.9 134.45,-202.93 130.16,-200.46 124.02,-199.49"/>
<polygon fill="black" stroke="black" points="124.1,-195.99 113.98,-199.14 123.85,-202.99 124.1,-195.99"/>
<text text-anchor="middle" x="136.95" y="-203.2" font-family="Times,serif" font-size="14.00">l</text>
</g>
<!-- s3 -->
<g id="node6" class="node">
<title>s3</title>
<ellipse fill="none" stroke="black" cx="76.45" cy="-119.9" rx="27" ry="18"/>
<text text-anchor="middle" x="76.45" y="-116.2" font-family="Times,serif" font-size="14.00">s3</text>
</g>
<!-- s2&#45;&gt;s3 -->
<g id="edge8" class="edge">
<title>s2&#45;&gt;s3</title>
<path fill="none" stroke="black" d="M77.66,-190.35C73.96,-184.56 70.34,-177.73 68.45,-170.9 66.38,-163.44 66.68,-155.2 67.97,-147.6"/>
<polygon fill="black" stroke="black" points="71.4,-148.29 70.2,-137.76 64.57,-146.74 71.4,-148.29"/>
<text text-anchor="middle" x="73.45" y="-159.7" font-family="Times,serif" font-size="14.00">d</text>
</g>
<!-- s4 -->
<g id="node7" class="node">
<title>s4</title>
<ellipse fill="none" stroke="black" cx="167.45" cy="-25.45" rx="21.4" ry="21.4"/>
<ellipse fill="none" stroke="black" cx="167.45" cy="-25.45" rx="25.4" ry="25.4"/>
<text text-anchor="middle" x="167.45" y="-21.75" font-family="Times,serif" font-size="14.00">s4</text>
</g>
<!-- s2&#45;&gt;s4 -->
<g id="edge9" class="edge">
<title>s2&#45;&gt;s4</title>
<path fill="none" stroke="black" d="M103.35,-191.13C114.91,-178.09 130.94,-158.05 140.45,-137.9 151.96,-113.49 158.85,-83.69 162.78,-61.04"/>
<polygon fill="black" stroke="black" points="166.29,-61.31 164.44,-50.87 159.38,-60.18 166.29,-61.31"/>
<text text-anchor="middle" x="156.45" y="-116.2" font-family="Times,serif" font-size="14.00">c</text>
</g>
<!-- s1 -->
<g id="node5" class="node">
<title>s1</title>
<ellipse fill="none" stroke="black" cx="153.45" cy="-293.9" rx="27" ry="18"/>
<text text-anchor="middle" x="153.45" y="-290.2" font-family="Times,serif" font-size="14.00">s1</text>
</g>
<!-- s0&#45;&gt;s1 -->
<g id="edge2" class="edge">
<title>s0&#45;&gt;s1</title>
<path fill="none" stroke="black" d="M153.45,-362.7C153.45,-351.06 153.45,-335.44 153.45,-322.13"/>
<polygon fill="black" stroke="black" points="156.95,-322.07 153.45,-312.07 149.95,-322.07 156.95,-322.07"/>
<text text-anchor="middle" x="155.95" y="-333.7" font-family="Times,serif" font-size="14.00">l</text>
</g>
<!-- s1&#45;&gt;s5 -->
<g id="edge6" class="edge">
<title>s1&#45;&gt;s5</title>
<path fill="none" stroke="black" d="M131.31,-283.01C108.77,-271.89 74.25,-251.81 53.45,-224.9 14.03,-173.89 21.24,-148.33 19.45,-83.9 19.26,-77.23 18.98,-75.55 19.45,-68.9 19.64,-66.2 19.89,-63.42 20.19,-60.63"/>
<polygon fill="black" stroke="black" points="23.68,-60.98 21.43,-50.63 16.73,-60.12 23.68,-60.98"/>
<text text-anchor="middle" x="28.45" y="-159.7" font-family="Times,serif" font-size="14.00">f</text>
</g>
<!-- s1&#45;&gt;s2 -->
<g id="edge3" class="edge">
<title>s1&#45;&gt;s2</title>
<path fill="none" stroke="black" d="M141.71,-277.31C132.06,-264.49 118.22,-246.11 107.22,-231.49"/>
<polygon fill="black" stroke="black" points="109.92,-229.27 101.11,-223.39 104.33,-233.48 109.92,-229.27"/>
<text text-anchor="middle" x="127.95" y="-246.7" font-family="Times,serif" font-size="14.00">l</text>
</g>
<!-- s1&#45;&gt;s3 -->
<g id="edge4" class="edge">
<title>s1&#45;&gt;s3</title>
<path fill="none" stroke="black" d="M156.38,-275.78C159.23,-254.38 161.44,-217.14 148.45,-188.9 138.99,-168.33 120.23,-150.94 104.22,-138.89"/>
<polygon fill="black" stroke="black" points="105.86,-135.76 95.69,-132.76 101.77,-141.44 105.86,-135.76"/>
<text text-anchor="middle" x="162.45" y="-203.2" font-family="Times,serif" font-size="14.00">d</text>
</g>
<!-- s1&#45;&gt;s4 -->
<g id="edge5" class="edge">
<title>s1&#45;&gt;s4</title>
<path fill="none" stroke="black" d="M163.52,-277.13C166.7,-271.32 169.8,-264.53 171.45,-257.9 190.08,-182.83 173,-161.23 173.45,-83.9 173.49,-77.23 173.92,-75.55 173.45,-68.9 173.26,-66.2 173,-63.42 172.7,-60.63"/>
<polygon fill="black" stroke="black" points="176.17,-60.12 171.46,-50.63 169.22,-60.98 176.17,-60.12"/>
<text text-anchor="middle" x="182.45" y="-159.7" font-family="Times,serif" font-size="14.00">c</text>
</g>
<!-- s3&#45;&gt;s5 -->
<g id="edge14" class="edge">
<title>s3&#45;&gt;s5</title>
<path fill="none" stroke="black" d="M67.56,-102.79C60.66,-90.28 50.89,-72.56 42.49,-57.34"/>
<polygon fill="black" stroke="black" points="45.37,-55.32 37.48,-48.25 39.24,-58.7 45.37,-55.32"/>
<text text-anchor="middle" x="60.45" y="-72.7" font-family="Times,serif" font-size="14.00">f</text>
</g>
<!-- s3&#45;&gt;s2 -->
<g id="edge11" class="edge">
<title>s3&#45;&gt;s2</title>
<path fill="none" stroke="black" d="M79.07,-138.07C80.85,-149.7 83.24,-165.32 85.28,-178.63"/>
<polygon fill="black" stroke="black" points="81.85,-179.34 86.82,-188.7 88.77,-178.28 81.85,-179.34"/>
<text text-anchor="middle" x="86.95" y="-159.7" font-family="Times,serif" font-size="14.00">l</text>
</g>
<!-- s3&#45;&gt;s3 -->
<g id="edge12" class="edge">
<title>s3&#45;&gt;s3</title>
<path fill="none" stroke="black" d="M100.98,-127.65C111.96,-128.39 121.45,-125.8 121.45,-119.9 121.45,-115.93 117.16,-113.46 111.02,-112.49"/>
<polygon fill="black" stroke="black" points="111.1,-108.99 100.98,-112.14 110.85,-115.99 111.1,-108.99"/>
<text text-anchor="middle" x="126.45" y="-116.2" font-family="Times,serif" font-size="14.00">d</text>
</g>
<!-- s3&#45;&gt;s4 -->
<g id="edge13" class="edge">
<title>s3&#45;&gt;s4</title>
<path fill="none" stroke="black" d="M90.67,-104.45C104.54,-90.36 125.93,-68.63 142.61,-51.68"/>
<polygon fill="black" stroke="black" points="145.38,-53.85 149.9,-44.27 140.39,-48.94 145.38,-53.85"/>
<text text-anchor="middle" x="129.45" y="-72.7" font-family="Times,serif" font-size="14.00">c</text>
</g>
</g>
</svg>
