<?xml version="1.0" encoding="UTF-8" standalone="no"?>
<!DOCTYPE svg PUBLIC "-//W3C//DTD SVG 1.1//EN"
 "http://www.w3.org/Graphics/SVG/1.1/DTD/svg11.dtd">
<!-- Generated by graphviz version 2.47.0 (20210316.0004)
 -->
<!-- Pages: 1 -->
<svg width="148pt" height="214pt"
 viewBox="0.00 0.00 148.09 213.70" xmlns="http://www.w3.org/2000/svg" xmlns:xlink="http://www.w3.org/1999/xlink">
<g id="graph0" class="graph" transform="scale(1 1) rotate(0) translate(4 209.7)">
<polygon fill="white" stroke="transparent" points="-4,4 -4,-209.7 144.09,-209.7 144.09,4 -4,4"/>
<!-- fake0 -->
<g id="node1" class="node">
<title>fake0</title>
</g>
<!-- s2 -->
<g id="node6" class="node">
<title>s2</title>
<ellipse fill="none" stroke="black" cx="30.55" cy="-114.7" rx="27" ry="18"/>
<text text-anchor="middle" x="30.55" y="-111" font-family="Times New Roman,serif" font-size="14.00">s2</text>
</g>
<!-- fake0&#45;&gt;s2 -->
<g id="edge2" class="edge">
<title>fake0&#45;&gt;s2</title>
<path fill="none" stroke="black" stroke-width="2" d="M30.55,-169.51C30.55,-161.49 30.55,-151.74 30.55,-142.77"/>
<polygon fill="black" stroke="black" stroke-width="2" points="34.05,-142.73 30.55,-132.73 27.05,-142.73 34.05,-142.73"/>
</g>
<!-- fake1 -->
<g id="node2" class="node">
<title>fake1</title>
</g>
<!-- s0 -->
<g id="node5" class="node">
<title>s0</title>
<ellipse fill="none" stroke="black" cx="109.55" cy="-114.7" rx="27" ry="18"/>
<text text-anchor="middle" x="109.55" y="-111" font-family="Times New Roman,serif" font-size="14.00">s0</text>
</g>
<!-- fake1&#45;&gt;s0 -->
<g id="edge1" class="edge">
<title>fake1&#45;&gt;s0</title>
<path fill="none" stroke="black" stroke-width="2" d="M109.55,-169.51C109.55,-161.49 109.55,-151.74 109.55,-142.77"/>
<polygon fill="black" stroke="black" stroke-width="2" points="113.05,-142.73 109.55,-132.73 106.05,-142.73 113.05,-142.73"/>
</g>
<!-- s3 -->
<g id="node3" class="node">
<title>s3</title>
<ellipse fill="none" stroke="black" cx="30.55" cy="-22.85" rx="18.72" ry="18.72"/>
<ellipse fill="none" stroke="black" cx="30.55" cy="-22.85" rx="22.7" ry="22.7"/>
<text text-anchor="middle" x="30.55" y="-19.15" font-family="Times New Roman,serif" font-size="14.00">s3</text>
</g>
<!-- s1 -->
<g id="node4" class="node">
<title>s1</title>
<ellipse fill="none" stroke="black" cx="109.55" cy="-22.85" rx="18.72" ry="18.72"/>
<ellipse fill="none" stroke="black" cx="109.55" cy="-22.85" rx="22.7" ry="22.7"/>
<text text-anchor="middle" x="109.55" y="-19.15" font-family="Times New Roman,serif" font-size="14.00">s1</text>
</g>
<!-- s0&#45;&gt;s1 -->
<g id="edge3" class="edge">
<title>s0&#45;&gt;s1</title>
<path fill="none" stroke="black" d="M109.55,-96.37C109.55,-84.91 109.55,-69.54 109.55,-55.9"/>
<polygon fill="black" stroke="black" points="113.05,-55.9 109.55,-45.9 106.05,-55.9 113.05,-55.9"/>
<text text-anchor="middle" x="113.05" y="-67.5" font-family="Times New Roman,serif" font-size="14.00">a</text>
</g>
<!-- s2&#45;&gt;s3 -->
<g id="edge4" class="edge">
<title>s2&#45;&gt;s3</title>
<path fill="none" stroke="black" d="M30.55,-96.37C30.55,-84.91 30.55,-69.54 30.55,-55.9"/>
<polygon fill="black" stroke="black" points="34.05,-55.9 30.55,-45.9 27.05,-55.9 34.05,-55.9"/>
<text text-anchor="middle" x="34.55" y="-67.5" font-family="Times New Roman,serif" font-size="14.00">b</text>
</g>
</g>
</svg>
